<?xml version="1.0" standalone="no"?>
<!DOCTYPE svg PUBLIC "-//W3C//DTD SVG 1.1//EN" "http://www.w3.org/Graphics/SVG/1.1/DTD/svg11.dtd" >
<svg xmlns="http://www.w3.org/2000/svg" xmlns:xlink="http://www.w3.org/1999/xlink" version="1.1">
<metadata></metadata>
<defs>
<font id="noto_serif_thailight" horiz-adv-x="0" >
<font-face units-per-em="2048" ascent="1638" descent="-410" />
<missing-glyph horiz-adv-x="532" />
<glyph unicode="&#xe24;&#xe45;" horiz-adv-x="1929" d="M170 860q0 129 111.5 203t306.5 74q125 0 221 -39t152 -154q39 104 132 148.5t222 44.5q213 0 310 -85t97 -253v-1196l-73 -88h-45v1288q0 143 -74 202.5t-213 59.5q-150 0 -229.5 -79t-79.5 -224v-1165l-74 -89h-43v1276q0 283 -309 283q-141 0 -218 -61.5t-73 -176.5 l209 -96q29 -14 28 -43q0 -25 -16 -35q-199 -10 -199 -211v-133q33 18 80 19q74 0 124 -46t50 -128q0 -78 -49 -124t-139 -46q-88 0 -136 48t-48 138v270q0 215 206 260v7l-223 73q-4 20 -6 40t-2 38zM279 156q0 -49 25.5 -78t78.5 -29t78.5 28.5t25.5 78.5q0 49 -25.5 77.5 t-78.5 28.5t-78.5 -28.5t-25.5 -77.5z" />
<glyph unicode="&#xe26;&#xe45;" horiz-adv-x="1982" d="M57 158q0 84 50.5 128t119.5 44q41 0 76 -17v142q0 104 31 160.5t119 82.5v7l-232 73q-4 20 -6 40t-2 38q0 131 114.5 206t313.5 75q125 0 221 -39t152 -154q39 104 133 148.5t221 44.5q213 0 310.5 -85t97.5 -253v-1190l-74 -88h-43v1282q0 143 -74 202.5t-213 59.5 q-152 0 -230.5 -79t-78.5 -224v-1159l-74 -88h-45v1269q0 283 -307 283q-150 0 -227.5 -63.5t-75.5 -178.5l217 -98q31 -12 31 -41q0 -25 -17 -35q-82 0 -113.5 -43t-31.5 -145v-289q0 -90 -48 -139t-132 -49t-133.5 46t-49.5 126zM137 156q1 -105 99 -105q47 0 73.5 27.5 t26.5 79.5q0 104 -100 104q-98 0 -99 -106z" />
<glyph />
<glyph />
<glyph unicode="&#xd;" horiz-adv-x="532" />
<glyph unicode=" "  horiz-adv-x="532" />
<glyph unicode="&#x09;" horiz-adv-x="532" />
<glyph unicode="&#xa0;" horiz-adv-x="532" />
<glyph unicode="-" horiz-adv-x="634" d="M51 504v110h533v-110h-533z" />
<glyph unicode="&#xad;" horiz-adv-x="634" d="M51 504v110h533v-110h-533z" />
<glyph unicode="&#x2bc;" horiz-adv-x="454" d="M53 944v60q98 29 144.5 91t46.5 115q0 29 -20.5 45.5t-48.5 29.5t-48.5 32.5t-20.5 54.5q0 45 31 67.5t72 22.5q45 0 85 -35.5t40 -111.5q0 -119 -64.5 -221.5t-216.5 -149.5z" />
<glyph unicode="&#x2d7;" horiz-adv-x="614" d="M90 504v71h434v-71h-434z" />
<glyph unicode="&#x303;" d="M-1073 1262q4 49 23.5 98t59.5 81t105 32q70 0 125 -31t102.5 -61.5t94.5 -30.5q59 0 77.5 33.5t24.5 74.5h70q-6 -78 -47 -141.5t-137 -63.5q-68 0 -123.5 31t-104.5 60.5t-96 29.5q-61 0 -79.5 -35.5t-25.5 -76.5h-69z" />
<glyph unicode="&#x331;" d="M-952 -147h676v-89h-676v89z" />
<glyph unicode="&#xe01;" horiz-adv-x="1212" d="M172 860q0 129 112.5 203t305.5 74q205 0 313.5 -89.5t108.5 -263.5v-706l-74 -88h-45v772q0 305 -307 305q-141 0 -218 -61.5t-73 -176.5l207 -96q31 -16 30 -43q0 -25 -16 -35q-197 -8 -197 -211v-444h-118v442q0 215 202 260v7l-221 73q-10 45 -10 78z" />
<glyph unicode="&#xe02;" horiz-adv-x="1101" d="M53 864q0 127 78 200t209 73q137 0 215 -80t78 -201q0 -113 -64.5 -205t-165.5 -147v-275q0 -180 189 -180q96 0 144 45t48 142v802l72 88h45v-886q0 -137 -77.5 -198.5t-229.5 -61.5q-143 0 -227 57t-84 196v314q109 45 179 123t70 190q0 104 -59 156.5t-143 52.5 q-96 0 -145.5 -51t-57.5 -105l8 -4q16 29 46 40.5t61 11.5q70 0 110.5 -41t40.5 -107q0 -68 -42 -111t-120 -43q-84 0 -131 55.5t-47 149.5zM150 809q0 -41 23.5 -64.5t62.5 -23.5t63.5 23.5t24.5 64.5t-25 64.5t-63 23.5q-39 0 -62.5 -23.5t-23.5 -64.5z" />
<glyph unicode="&#xe03;" horiz-adv-x="1171" d="M70 838q0 104 45 186t145 111l109 -97l106 97q102 -29 152.5 -103t50.5 -174q0 -106 -52.5 -199.5t-154.5 -148.5v-281q0 -180 191 -180q96 0 143 45t47 142v802l74 88h43v-886q0 -137 -77.5 -198.5t-229.5 -61.5q-143 0 -226.5 57t-83.5 196v318q106 45 166 124t60 185 q0 78 -29 123t-74 68l-102 -88h-13l-108 88q-47 -12 -76 -62.5t-31 -109.5l9 -5q16 29 43.5 40.5t58.5 11.5q72 0 112 -40t40 -108t-43 -110.5t-121 -42.5q-84 0 -129 56t-45 157zM162 774q0 -41 23.5 -64.5t62.5 -23.5t63.5 23.5t24.5 64.5t-24.5 64.5t-63.5 23.5 t-62.5 -23.5t-23.5 -64.5z" />
<glyph unicode="&#xe04;" horiz-adv-x="1259" d="M180 721q0 203 105.5 310.5t339.5 107.5q213 0 323.5 -97.5t110.5 -293.5v-670l-74 -88h-45v753q0 174 -80 248t-237 74q-180 0 -257 -90t-77 -264q0 -55 3 -103.5t7 -105t6 -135.5h6q41 141 89.5 220t97.5 115q51 45 129 46q82 0 130 -45.5t48 -127.5q0 -78 -47 -121.5 t-123 -43.5q-57 0 -103.5 30.5t-52.5 100.5l-4 2q-53 -74 -91 -195t-40 -270v-78h-119v111q0 186 -22.5 333.5t-22.5 276.5zM530 578q0 -47 25 -75t74 -28q51 0 74.5 27.5t23.5 75.5q0 102 -98 102q-51 0 -75 -27.5t-24 -74.5z" />
<glyph unicode="&#xe05;" horiz-adv-x="1280" d="M180 721q0 172 71 272.5t220 143.5l170 -154l174 154q143 -39 203.5 -127t60.5 -234v-698l-73 -88h-45v780q0 127 -34 184.5t-112 94.5l-172 -150h-10l-166 150q-88 -35 -132 -124t-44 -208q0 -57 4 -107.5t8 -107t6 -135.5h8q39 141 88.5 220t96.5 115q53 45 129 46 q82 0 131 -45.5t49 -127.5q0 -78 -47 -121.5t-123 -43.5q-59 0 -105.5 30.5t-52.5 100.5l-4 2q-53 -74 -91 -195t-38 -270v-78h-119v111q0 139 -13 243.5t-25.5 192.5t-12.5 174zM537 578q0 -47 24.5 -75t73.5 -28q51 0 74.5 27.5t23.5 75.5q0 102 -98 102 q-51 0 -74.5 -27.5t-23.5 -74.5z" />
<glyph unicode="&#xe06;" horiz-adv-x="1284" d="M100 840q0 106 48.5 187t146.5 108l117 -97l114 97q100 -29 150.5 -103t50.5 -174q0 -106 -52 -199.5t-155 -150.5v-100q121 -27 237.5 -106t196.5 -175h7v911l73 88h43v-1048l-73 -88h-43q-51 82 -124 153.5t-154 121.5t-163 73v-180q0 -96 -50 -134t-124 -38 q-109 0 -154 62.5t-45 137.5q0 109 70 170.5t184 61.5v133q104 45 165 122t61 187q0 78 -27 124t-74 67l-106 -93h-14l-119 93q-49 -12 -78 -62.5t-33 -109.5l8 -5q16 29 44 40.5t59 11.5q70 0 110.5 -40t40.5 -108t-42 -110.5t-120 -42.5q-84 0 -130 56t-46 159zM193 774 q0 -41 24.5 -64.5t63.5 -23.5t63.5 23.5t24.5 64.5t-25 64.5t-63 23.5q-39 0 -63.5 -23.5t-24.5 -64.5zM227 186q0 -59 26 -97t77 -38q39 0 56 22.5t17 57.5v219q-82 0 -129 -41t-47 -123z" />
<glyph unicode="&#xe07;" horiz-adv-x="995" d="M88 627v61h12q47 0 81 -9t59 -42q23 -27 43 -86t53 -168q43 -143 71.5 -215t60.5 -96.5t87 -24.5q63 0 93 29.5t30 120.5v614q-31 -23 -80 -23q-80 0 -130 46.5t-50 126.5q0 78 51 125t139 47q84 0 135.5 -46.5t51.5 -134.5v-719q0 -143 -57.5 -198t-184.5 -55 q-102 0 -156.5 31.5t-89.5 110.5t-78 218q-37 119 -58 179.5t-38.5 82t-44.5 25.5zM496 958q0 -106 106 -106t107 106q0 106 -107 107q-49 0 -77.5 -26.5t-28.5 -80.5z" />
<glyph unicode="&#xe08;" horiz-adv-x="1122" d="M123 903q0 100 99.5 167t293.5 67q213 0 311.5 -87t98.5 -255v-527q0 -150 -69 -219t-214 -69q-143 0 -201.5 62t-58.5 189v152q-16 -10 -36.5 -14t-39.5 -4q-78 0 -126 45t-48 127q0 78 47 124t137 46q80 0 131.5 -42t51.5 -133v-301q0 -96 32.5 -139t114.5 -43 q94 0 128 49t34 144v555q0 147 -77 207.5t-216 60.5q-131 0 -203.5 -55.5t-72.5 -188.5q-59 0 -88 16.5t-29 65.5zM211 535q0 -49 25.5 -78t76.5 -29t78 28.5t27 78.5q0 104 -105 104q-102 0 -102 -104z" />
<glyph unicode="&#xe09;" horiz-adv-x="1308" d="M117 532q0 78 48 125.5t136 47.5q76 0 127 -43.5t51 -131.5v-393h6q82 96 181.5 169t218.5 97v383q0 156 -80 217.5t-232 61.5t-230.5 -57.5t-78.5 -198.5q-59 0 -88 17.5t-29 68.5q0 104 106.5 173t317.5 69q229 0 331 -89.5t102 -265.5v-370q102 0 164.5 -59.5 t62.5 -159.5q0 -51 -18.5 -98.5t-59.5 -78t-109 -30.5q-66 0 -112.5 37.5t-46.5 130.5v178q-121 -29 -222.5 -123t-183.5 -209h-119v375q-25 -14 -71 -15q-76 0 -124 46.5t-48 125.5zM193 530q0 -47 26.5 -75.5t75.5 -28.5t75.5 28.5t26.5 75.5q0 49 -26.5 78t-75.5 29 t-75.5 -28.5t-26.5 -78.5zM1001 133q1 -82 64 -82q43 0 64.5 39t21.5 98q0 80 -40 118t-110 38v-211z" />
<glyph unicode="&#xe0a;" horiz-adv-x="1150" d="M53 866q0 125 78 198t209 73q137 0 215 -79t78 -200q0 -113 -64.5 -205t-165.5 -147v-270q0 -186 205 -187q98 0 151.5 47t53.5 146v428q0 61 -24.5 102t-88.5 64v38q125 47 175.5 127t33.5 187q53 0 84 -16.5t31 -73.5q0 -90 -57.5 -149.5t-149.5 -92.5v-6 q115 -47 115 -176v-428q0 -139 -84 -202.5t-240 -63.5q-147 0 -236 60t-89 202v307q109 45 179 123t70 190q0 104 -59 156.5t-143 52.5q-96 0 -145.5 -51t-57.5 -105l8 -4q16 29 46 40.5t61 11.5q70 0 110.5 -40t40.5 -108t-42 -110.5t-120 -42.5q-84 0 -131 54t-47 150z M150 811q0 -41 23.5 -64.5t62.5 -23.5t63.5 23.5t24.5 64.5t-25 64.5t-63 23.5q-39 0 -62.5 -23.5t-23.5 -64.5z" />
<glyph unicode="&#xe0b;" horiz-adv-x="1150" d="M66 838q0 104 45 186t145 111l109 -97l106 97q102 -29 151.5 -103t49.5 -174q0 -106 -54.5 -201.5t-173.5 -158.5v-258q0 -100 48.5 -145.5t148.5 -45.5q106 0 154.5 48t48.5 149v424q0 61 -23.5 102t-87.5 64v38q123 47 170 127t37 187q63 0 89 -18.5t26 -71.5 q0 -82 -54.5 -144.5t-150.5 -95.5v-8q57 -23 85 -69t28 -107v-422q0 -141 -79 -206.5t-241 -65.5q-164 0 -240.5 64.5t-76.5 201.5v297q248 102 247 317q0 78 -28.5 123t-73.5 68l-104 -88h-13l-106 88q-47 -12 -76 -62.5t-33 -109.5l8 -5q16 29 45 40.5t60 11.5 q72 0 111.5 -40t39.5 -108t-43 -110.5t-120 -42.5q-84 0 -129 56t-45 157zM158 774q0 -41 23.5 -64.5t62.5 -23.5t63.5 23.5t24.5 64.5t-24.5 64.5t-63.5 23.5t-62.5 -23.5t-23.5 -64.5z" />
<glyph unicode="&#xe0c;" horiz-adv-x="1779" d="M170 860q0 129 113.5 203t312.5 74q430 0 430 -353v-374q121 -27 232.5 -113t197.5 -178v919l74 88h43v-1048l-74 -88h-43q-59 76 -133 148.5t-149.5 126.5t-147.5 73v-180q0 -96 -49 -134t-119 -38q-104 0 -147 62.5t-43 137.5q0 109 67.5 170.5t175.5 61.5v344 q0 305 -319 305q-150 0 -227.5 -61.5t-73.5 -176.5l209 -96q29 -14 28 -43q0 -25 -16 -35q-199 -10 -199 -211v-133q33 18 80 19q74 0 124 -46t50 -128q0 -78 -49 -124t-139 -46q-88 0 -136 48t-48 138v270q0 215 206 260v7l-223 73q-4 20 -6 40t-2 38zM279 156 q0 -49 25.5 -78t78.5 -29t78.5 28.5t25.5 78.5q0 49 -25.5 77.5t-78.5 28.5t-78.5 -28.5t-25.5 -77.5zM748 188q0 -57 23.5 -97t70.5 -40q35 0 53 22.5t18 57.5v219q-166 0 -165 -162z" />
<glyph unicode="&#xe0d;" horiz-adv-x="1777" d="M180 860q0 129 113 203t299 74q199 0 306.5 -89.5t107.5 -263.5v-716h254q96 0 141 36.5t45 128.5v809l72 84h45v-880q0 -137 -68 -191.5t-199 -54.5h-489v61h16q68 0 68 80v621q0 305 -303 305q-135 0 -212 -61.5t-75 -176.5l209 -96q31 -16 31 -43q0 -25 -17 -35 q-201 -10 -200 -211v-133q33 18 82 19q72 0 123 -46t51 -128q0 -78 -50.5 -124t-138.5 -46t-136 48t-48 138v270q0 215 205 260v7l-222 73q-10 45 -10 78zM289 156q0 -49 26.5 -78t79.5 -29t79 28.5t26 78.5q0 49 -27 77.5t-78 28.5q-53 0 -79.5 -28.5t-26.5 -77.5z M815 -268q0 72 45 109.5t115 37.5q68 0 115 -38t47 -107q0 -57 -32 -90t-69 -41v-6q27 -10 63 -17.5t87 -7.5q76 0 139.5 25.5t102 79t38.5 133.5v43q57 0 83 -16.5t26 -69.5q0 -80 -50 -138.5t-136 -91.5t-197 -33q-102 0 -187 25t-137.5 75t-52.5 128zM885 -270 q0 -41 23.5 -65.5t66.5 -24.5q41 0 64.5 24.5t23.5 65.5t-23.5 65.5t-66.5 24.5q-41 0 -64.5 -24.5t-23.5 -65.5z" />
<glyph unicode="&#xe0e;" horiz-adv-x="1269" d="M57 158q0 84 50.5 128t119.5 44q41 0 76 -17v142q0 104 31 160.5t119 82.5v7l-232 73q-4 20 -6 40t-2 38q0 131 114.5 206t313.5 75q211 0 319.5 -89.5t108.5 -265.5v-1185l-74 -89h-37q-43 49 -95 90.5t-109 71.5q-45 -78 -135.5 -128t-221.5 -50q-113 0 -186.5 42 t-73.5 122q0 82 80 122t193 40q72 0 141.5 -15.5t132.5 -40.5q16 68 14 154q59 10 80 -11.5t21 -72.5q0 -57 -21 -111q51 -27 93 -56.5t73 -59.5h6v1155q0 158 -77.5 232.5t-235.5 74.5q-150 0 -227.5 -63.5t-75.5 -178.5l217 -98q31 -12 31 -41q0 -25 -17 -35 q-82 0 -113.5 -43t-31.5 -145v-289q0 -90 -48 -139t-132 -49t-133.5 46t-49.5 126zM137 156q1 -105 99 -105q47 0 73.5 27.5t26.5 79.5q0 104 -100 104q-98 0 -99 -106zM254 -346q0 -102 160 -103q74 0 144.5 33t109.5 125q-125 49 -242 49q-172 0 -172 -104z" />
<glyph unicode="&#xe0f;" horiz-adv-x="1269" d="M57 158q0 84 50.5 128t119.5 44q41 0 76 -17v142q0 104 31 160.5t119 82.5v7l-232 73q-4 20 -6 40t-2 38q0 131 114.5 206t313.5 75q211 0 319.5 -89.5t108.5 -265.5v-1185l-74 -89h-45v254h-6l-194 -254h-35q-43 92 -142 168q-37 -82 -106.5 -133t-175.5 -51 q-94 0 -154.5 45t-60.5 121q0 84 68.5 128t174.5 44q51 0 99.5 -10t91.5 -29q8 74 2 166q61 10 79.5 -12.5t18.5 -75.5q0 -66 -14 -125q47 -31 83 -66.5t58 -70.5l213 270v883q0 158 -77.5 232.5t-235.5 74.5q-150 0 -227.5 -63.5t-75.5 -178.5l217 -98q31 -12 31 -41 q0 -25 -17 -35q-82 0 -113.5 -43t-31.5 -145v-289q0 -90 -48 -139t-132 -49t-133.5 46t-49.5 126zM137 156q1 -105 99 -105q47 0 73.5 27.5t26.5 79.5q0 104 -100 104q-98 0 -99 -106zM186 -344q0 -49 35 -77t84 -28q66 0 116 42t75 133q-37 20 -78 31.5t-82 11.5 q-72 0 -111 -32t-39 -81z" />
<glyph unicode="&#xe10;" horiz-adv-x="1132" d="M72 -381q0 78 60.5 119t148.5 41q80 0 145 -35q6 61 0 133q57 0 71.5 -18.5t14.5 -63.5q0 -55 -10 -106q31 -31 54.5 -68t37.5 -76l145 86l146 -88h8v133l-6 2q-27 -16 -64 -16q-57 0 -101 34t-44 99q0 57 40 94t113 37q72 0 116 -36.5t44 -100.5v-250l-57 -74h-43 l-152 95l-151 -95h-31q-14 41 -32.5 79t-43.5 71q-27 -68 -81 -112t-140 -44q-84 0 -136 44t-52 116zM119 903q0 98 107.5 166t283.5 68q84 0 135 -10.5t90 -20.5t88 -10q80 0 118 31.5t38 74.5q45 0 71.5 -14t26.5 -55q0 -59 -66.5 -90t-181.5 -15l-4 -6q51 -41 74 -99.5 t23 -129.5v-514q0 -152 -68 -220.5t-213 -68.5t-203.5 62.5t-58.5 189.5v145q-35 -20 -84 -20q-72 0 -123 45t-51 127q0 76 50 124t138 48q84 0 136.5 -46.5t52.5 -134.5v-288q0 -96 31.5 -139.5t113.5 -43.5q94 0 128 49.5t34 143.5v545q0 147 -78 206.5t-217 59.5 q-125 0 -199.5 -56.5t-74.5 -187.5q-59 0 -88 17.5t-29 66.5zM168 -385q0 -47 28.5 -71.5t71.5 -24.5q59 0 96 44t54 118q-57 41 -125 40q-55 0 -90 -26.5t-35 -79.5zM199 537q0 -107 104 -107q109 0 109 107q0 106 -107 106q-106 0 -106 -106zM745 -205q0 -80 86 -80 q84 0 84 78t-84 78q-86 0 -86 -76z" />
<glyph unicode="&#xe11;" horiz-adv-x="1351" d="M74 842q0 104 47 184t143 109l109 -101l106 101q66 -16 113 -63.5t61 -123.5h6q35 82 75 122t84 52.5t89 12.5q123 0 182.5 -53.5t59.5 -153.5v-850l-72 -88h-45v932q0 141 -135 141q-53 0 -87 -23.5t-57.5 -74t-54.5 -131.5q-23 -63 -48 -121t-65 -109t-110 -98v-506 h-119v543q104 49 165 131t61 190q0 74 -27 120t-74 69l-108 -103l-117 103q-100 -35 -106 -174l8 -5q16 29 43.5 40.5t58.5 11.5q72 0 112 -40t40 -108t-42 -110.5t-120 -42.5q-86 0 -131 57t-45 160zM166 774q0 -41 23.5 -64.5t64.5 -23.5q39 0 62.5 23.5t23.5 64.5 t-23.5 64.5t-62.5 23.5q-41 0 -64.5 -23.5t-23.5 -64.5z" />
<glyph unicode="&#xe12;" horiz-adv-x="1832" d="M172 662q0 205 71.5 317.5t223.5 157.5l172 -152l180 152q141 -39 200.5 -127t59.5 -234v-373q119 -27 226.5 -106.5t195.5 -175.5h6v917l74 88h45v-1048l-74 -88h-45q-61 76 -134 146.5t-147.5 122.5t-146.5 73v-174q0 -96 -49 -134t-119 -38q-102 0 -144 62.5 t-42 137.5q0 102 66.5 164t171.5 62v358q0 127 -35 183.5t-109 93.5l-176 -150h-10l-170 147q-94 -41 -136 -145t-42 -260q0 -66 7 -156t21.5 -188t32.5 -186q51 43 108.5 99t107.5 117.5t81 112.5q-25 -6 -49 -6q-84 0 -129 49t-45 123q0 76 47 122t135 46q86 0 134 -46 t48 -128q0 -63 -26.5 -121.5t-69.5 -116.5q-47 -66 -112.5 -135t-129 -130.5t-106.5 -94.5h-88q-25 111 -42 234.5t-27.5 236.5t-10.5 191zM498 600q0 -49 27.5 -75.5t74.5 -26.5t74.5 26.5t27.5 75.5t-27.5 77t-72.5 28q-47 0 -75.5 -28t-28.5 -77zM805 188q0 -57 21.5 -97 t68.5 -40q35 0 52.5 22.5t17.5 57.5v213q-160 0 -160 -156z" />
<glyph unicode="&#xe13;" horiz-adv-x="1869" d="M170 860q0 129 111.5 203t298.5 74q205 0 312 -89.5t107 -263.5v-649h9q88 94 193.5 172t228.5 103v628l73 88h43v-708q109 0 176.5 -61.5t67.5 -170.5q0 -76 -44 -138t-149 -62q-68 0 -116.5 38.5t-48.5 133.5v180q-76 -18 -153 -71.5t-149.5 -124t-136.5 -142.5h-108 v762q0 305 -307 305q-137 0 -214 -61.5t-73 -176.5l209 -96q29 -14 28 -43q0 -25 -16 -35q-199 -10 -199 -211v-133q33 18 80 19q74 0 124 -46t50 -128q0 -78 -49 -124t-139 -46q-88 0 -136 48t-48 138v270q0 215 206 260v7l-223 73q-4 20 -6 40t-2 38zM279 156 q0 -49 25.5 -78t78.5 -29t78.5 28.5t25.5 78.5q0 49 -25.5 77.5t-78.5 28.5t-78.5 -28.5t-25.5 -77.5zM1544 133q0 -37 18.5 -59.5t51.5 -22.5q49 0 72.5 40t23.5 97q0 162 -166 162v-217z" />
<glyph unicode="&#xe14;" horiz-adv-x="1277" d="M172 659q0 233 108.5 355.5t358.5 122.5q438 0 438 -381v-678l-73 -88h-43v758q0 156 -86.5 236.5t-239.5 80.5q-178 0 -264 -108.5t-86 -315.5q0 -98 17 -242.5t48 -289.5q57 41 115.5 97t109 117.5t80.5 116.5q-25 -10 -55 -10q-76 0 -122 47t-46 121q0 76 47 122 t135 46q86 0 135.5 -45t49.5 -127q0 -66 -29 -126t-70 -114q-53 -74 -123.5 -146.5t-133 -127.5t-99.5 -80h-92q-25 111 -42 235.5t-27.5 236.5t-10.5 187zM512 594q0 -47 26.5 -73.5t73.5 -26.5t75 26.5t28 75.5t-28 75.5t-73 26.5q-47 0 -74.5 -27.5t-27.5 -76.5z" />
<glyph unicode="&#xe15;" horiz-adv-x="1284" d="M172 662q0 205 71.5 319.5t223.5 155.5l172 -152l180 152q143 -39 203.5 -127t60.5 -234v-698l-73 -88h-45v780q0 127 -34 183.5t-112 90.5l-176 -147h-10l-170 147q-90 -37 -134 -139t-44 -262q0 -98 17 -243.5t48 -290.5q53 39 110.5 93t109 116.5t85.5 121.5 q-23 -10 -49 -10q-82 0 -128 47t-46 121q0 76 47 122t135 46q86 0 135.5 -45t49.5 -127q0 -66 -29 -126t-70 -114q-53 -74 -123.5 -146.5t-133 -127.5t-99.5 -80h-92q-25 111 -42 235.5t-27.5 237.5t-10.5 189zM512 594q0 -47 26.5 -73.5t73.5 -26.5t75 26.5t28 75.5 t-28 75.5t-73 26.5q-47 0 -74.5 -27.5t-27.5 -76.5z" />
<glyph unicode="&#xe16;" horiz-adv-x="1212" d="M170 860q0 129 111.5 203t306.5 74q207 0 313.5 -89.5t106.5 -263.5v-706l-74 -88h-43v772q0 305 -307 305q-143 0 -220 -61.5t-73 -176.5l209 -96q29 -14 28 -43q0 -25 -16 -35q-199 -10 -199 -211v-133q33 18 80 19q74 0 124 -46t50 -128q0 -78 -49 -124t-139 -46 q-88 0 -136 48t-48 138v270q0 215 206 260v7l-223 73q-4 20 -6 40t-2 38zM279 156q0 -49 25.5 -78t78.5 -29t78.5 28.5t25.5 78.5q0 49 -25.5 77.5t-78.5 28.5t-78.5 -28.5t-25.5 -77.5z" />
<glyph unicode="&#xe17;" horiz-adv-x="1296" d="M47 961q0 80 50 126t141 46q84 0 135 -46.5t51 -134.5v-286q0 -113 -3 -232t-9 -221h6q37 129 71.5 228.5t67.5 211.5l76 246q45 137 97 186.5t149 49.5q115 0 166 -55.5t51 -147.5v-854l-74 -88h-43v952q0 121 -111 121q-47 0 -82.5 -29.5t-70.5 -134.5l-295 -899h-113 v809q-31 -23 -84 -23q-76 0 -126 46.5t-50 128.5zM125 958q0 -106 106 -106t107 106q0 106 -107 107q-49 0 -77.5 -26.5t-28.5 -80.5z" />
<glyph unicode="&#xe18;" horiz-adv-x="1144" d="M145 705v63q0 184 98.5 276.5t266.5 92.5q102 0 181 -25t151 -25q31 0 66.5 9.5t52.5 33.5q25 -23 24 -53q0 -51 -41 -70.5t-102 -19.5q-59 0 -116.5 12.5t-116 25.5t-124.5 13q-137 0 -199.5 -69.5t-62.5 -171.5v-25h457q125 0 196.5 -56.5t71.5 -193.5v-276 q0 -137 -69.5 -191.5t-202.5 -54.5h-508v61h25q37 0 51 16.5t14 53.5v377l72 88h45v-528h270q96 0 140 36.5t44 128.5v289q0 100 -50 141.5t-165 41.5h-469z" />
<glyph unicode="&#xe19;" horiz-adv-x="1323" d="M47 961q0 80 50 126t141 46q84 0 135 -46.5t51 -134.5v-825h6q94 98 209 177t240 106v628l73 88h45v-708q113 0 179.5 -60.5t66.5 -164.5q0 -78 -45 -142.5t-147 -64.5q-76 0 -124 41t-48 135v176q-127 -31 -243 -129t-212 -213h-117v813q-31 -23 -84 -23 q-76 0 -126 46.5t-50 128.5zM125 958q0 -106 106 -106t107 106q0 106 -107 107q-49 0 -77.5 -26.5t-28.5 -80.5zM995 137q0 -86 72 -86q47 0 71.5 40t24.5 99q0 160 -168 160v-213z" />
<glyph unicode="&#xe1a;" horiz-adv-x="1269" d="M63 961q0 80 50.5 126t140.5 46q84 0 135 -46.5t51 -134.5v-884h326q96 0 141 35.5t45 129.5v809l72 84h45v-880q0 -137 -67.5 -191.5t-198.5 -54.5h-608v61h47q43 0 62.5 20.5t19.5 72.5v655q-31 -23 -84 -23q-76 0 -126.5 46.5t-50.5 128.5zM141 958q1 -106 107 -106 t106 106t-106 107q-49 0 -78 -26.5t-29 -80.5z" />
<glyph unicode="&#xe1b;" horiz-adv-x="1282" d="M76 961q0 80 50 126t138 46q84 0 136.5 -46.5t52.5 -134.5v-884h325q94 0 139.5 36.5t45.5 128.5v1264l71 84h47v-1335q0 -137 -68.5 -191.5t-199.5 -54.5h-608v61h47q43 0 62.5 20.5t19.5 72.5v655q-33 -23 -82 -23q-76 0 -126 46.5t-50 128.5zM154 958q0 -106 104 -106 q106 0 107 106q0 106 -107 107q-104 0 -104 -107z" />
<glyph unicode="&#xe1c;" horiz-adv-x="1306" d="M199 0v965q0 82 50 127t136 45t135 -47.5t49 -124.5q0 -78 -49 -124t-129 -46q-23 0 -43 4t-33 14v-686h11l301 520h51l301 -520h8v911l74 88h45v-1048l-74 -88h-65l-316 555l-313 -545h-139zM281 965q0 -49 26.5 -78t79.5 -29q51 0 78 28.5t27 78.5q0 104 -107 104 q-104 0 -104 -104z" />
<glyph unicode="&#xe1d;" horiz-adv-x="1306" d="M199 0v965q0 82 50 127t136 45t135 -47.5t49 -124.5q0 -78 -49 -124t-129 -46q-23 0 -43 4t-33 14v-686h11l301 520h51l301 -520h8v1366l74 88h45v-1503l-74 -88h-65l-316 555l-313 -545h-139zM281 965q0 -49 26.5 -78t79.5 -29q51 0 78 28.5t27 78.5q0 104 -107 104 q-104 0 -104 -104z" />
<glyph unicode="&#xe1e;" horiz-adv-x="1443" d="M47 961q0 80 50 126t141 46q84 0 135 -46.5t51 -134.5v-743h8l303 907h68l313 -907h8v829l74 88h45v-1048l-72 -88h-65l-336 989l-324 -979h-139v809q-31 -23 -84 -23q-76 0 -126 46.5t-50 128.5zM125 958q0 -106 106 -106t107 106q0 106 -107 107q-49 0 -77.5 -26.5 t-28.5 -80.5z" />
<glyph unicode="&#xe1f;" horiz-adv-x="1458" d="M47 961q0 80 50 126t141 46q84 0 135 -46.5t51 -134.5v-743h8l303 907h68l313 -907h8v1284l74 88h45v-1503l-72 -88h-65l-336 989l-324 -979h-139v809q-31 -23 -84 -23q-76 0 -126 46.5t-50 128.5zM125 958q0 -106 106 -106t107 106q0 106 -107 107q-49 0 -77.5 -26.5 t-28.5 -80.5z" />
<glyph unicode="&#xe20;" horiz-adv-x="1269" d="M57 158q0 84 50.5 128t119.5 44q41 0 76 -17v142q0 104 31 160.5t119 82.5v7l-232 73q-4 20 -6 40t-2 38q0 131 114.5 206t313.5 75q211 0 319.5 -89.5t108.5 -265.5v-704l-74 -88h-45v770q0 158 -77.5 232.5t-235.5 74.5q-150 0 -227.5 -63.5t-75.5 -178.5l217 -98 q31 -12 31 -41q0 -25 -17 -35q-82 0 -113.5 -43t-31.5 -145v-289q0 -90 -48 -139t-132 -49t-133.5 46t-49.5 126zM137 156q1 -105 99 -105q47 0 73.5 27.5t26.5 79.5q0 104 -100 104q-98 0 -99 -106z" />
<glyph unicode="&#xe21;" horiz-adv-x="1284" d="M133 961q0 80 50 126t141 46q84 0 135 -46.5t51 -134.5v-542q82 -14 162 -58.5t152.5 -106t129.5 -124.5h7v917l73 88h43v-1048l-73 -88h-43q-59 74 -132 147.5t-154 129t-165 73.5v-182q0 -96 -49 -134t-125 -38q-106 0 -150.5 62.5t-44.5 137.5q0 109 69 170.5 t183 61.5v391q-31 -23 -84 -23q-76 0 -126 46.5t-50 128.5zM211 958q0 -106 104 -106q109 0 109 106t-107 107q-106 0 -106 -107zM221 186q0 -57 25 -96t76 -39q39 0 56 22.5t17 59.5v217q-174 0 -174 -164z" />
<glyph unicode="&#xe22;" horiz-adv-x="1193" d="M166 893q0 109 54 175.5t159 66.5q90 0 140 -47.5t50 -126.5q0 -82 -50 -127.5t-130 -45.5q-59 0 -98 33l-6 -4q8 -43 40.5 -91t87 -81t124.5 -33h71v-69h-71q-135 0 -187.5 -55.5t-52.5 -170.5q0 -80 22.5 -140t85 -94t181.5 -34q154 0 224.5 70.5t70.5 230.5v692l73 84 h45v-766q0 -213 -102 -296.5t-311 -83.5q-211 0 -312.5 80.5t-101.5 248.5q0 125 55.5 190.5t134.5 78.5v6q-78 33 -137 114.5t-59 194.5zM276 958q1 -104 105 -104t104 104q0 49 -26.5 78t-77.5 29q-104 0 -105 -107z" />
<glyph unicode="&#xe23;" horiz-adv-x="995" d="M78 705v63q0 174 90 271.5t238 97.5q96 0 177 -25t152 -25q31 0 66 8.5t51 32.5q25 -18 25 -51q0 -51 -39 -71.5t-105 -20.5q-61 0 -115.5 13.5t-108.5 26.5t-116 13q-121 0 -178 -73.5t-57 -169.5v-23h311q141 0 205.5 -62.5t64.5 -197.5v-340q0 -90 -48 -138t-136 -48 t-138 46t-50 124q0 82 51 128t125 46q47 0 80 -19v211q0 100 -47.5 141.5t-155.5 41.5h-342zM446 156q0 -49 26 -78t79 -29t78.5 28.5t25.5 78.5q0 49 -25.5 77.5t-78.5 28.5t-79 -28.5t-26 -77.5z" />
<glyph unicode="&#xe24;" horiz-adv-x="1212" d="M170 860q0 129 111.5 203t306.5 74q207 0 313.5 -89.5t106.5 -263.5v-1187l-74 -89h-43v1254q0 305 -307 305q-143 0 -220 -61.5t-73 -176.5l209 -96q29 -14 28 -43q0 -25 -16 -35q-199 -10 -199 -211v-133q33 18 80 19q74 0 124 -46t50 -128q0 -78 -49 -124t-139 -46 q-88 0 -136 48t-48 138v270q0 215 206 260v7l-223 73q-4 20 -6 40t-2 38zM279 156q0 -49 25.5 -78t78.5 -29t78.5 28.5t25.5 78.5q0 49 -25.5 77.5t-78.5 28.5t-78.5 -28.5t-25.5 -77.5z" />
<glyph unicode="&#xe25;" horiz-adv-x="1179" d="M152 897q0 100 103 171t300 71q418 0 418 -353v-706l-72 -88h-45v164q0 147 -44 257.5t-123 172t-181 61.5t-159.5 -66.5t-57.5 -189.5v-82q10 6 29.5 13.5t46.5 7.5q76 0 125 -45t49 -127q0 -78 -50.5 -125t-136.5 -47t-134 49t-48 139v184q0 188 90 274.5t227 86.5 q129 0 221.5 -66.5t139.5 -158.5l6 2v299q0 141 -75.5 206.5t-227.5 65.5q-143 0 -215 -59.5t-72 -196.5q-63 -2 -88.5 17.5t-25.5 68.5zM256 158q0 -107 102 -107t103 105q0 106 -103 106q-102 0 -102 -104z" />
<glyph unicode="&#xe26;" horiz-adv-x="1273" d="M57 158q0 84 50.5 128t119.5 44q41 0 76 -17v142q0 104 31 160.5t119 82.5v7l-232 73q-4 20 -6 40t-2 38q0 131 114.5 206t313.5 75q211 0 319.5 -89.5t108.5 -265.5v-1185l-74 -89h-45v1252q0 158 -77.5 232.5t-235.5 74.5q-150 0 -227.5 -63.5t-75.5 -178.5l217 -98 q31 -12 31 -41q0 -25 -17 -35q-82 0 -113.5 -43t-31.5 -145v-289q0 -90 -48 -139t-132 -49t-133.5 46t-49.5 126zM137 156q1 -105 99 -105q47 0 73.5 27.5t26.5 79.5q0 104 -100 104q-98 0 -99 -106z" />
<glyph unicode="&#xe27;" horiz-adv-x="1030" d="M68 907q0 63 49 115.5t132 83.5t183 31q397 0 397 -342v-623q0 -90 -48 -138t-136 -48t-138 46t-50 124q0 82 51 128t125 46q45 0 78 -19v486q0 147 -79 207.5t-196 60.5q-100 0 -176 -58.5t-76 -191.5q-59 -2 -87.5 18.5t-28.5 73.5zM537 156q0 -49 25.5 -78t78.5 -29 t78.5 28.5t25.5 78.5q0 49 -25.5 77.5t-78.5 28.5t-78.5 -28.5t-25.5 -77.5z" />
<glyph unicode="&#xe28;" horiz-adv-x="1280" d="M180 719q0 205 106.5 311.5t344.5 106.5q78 0 131 -11.5t97 -21.5t95 -10q82 0 120 34.5t38 73.5q47 0 71.5 -15.5t24.5 -56.5q0 -59 -68.5 -89.5t-183.5 -12.5l-4 -6q59 -49 83 -112.5t24 -149.5v-682l-74 -88h-45v753q0 174 -80 248t-239 74q-182 0 -257 -91t-75 -269 q0 -72 7 -149t9 -189h6q41 141 89.5 220t97.5 115q51 45 129 46q82 0 130 -45.5t48 -127.5q0 -78 -48 -121.5t-120 -43.5q-63 0 -108.5 30.5t-55.5 96.5q-53 -70 -91 -191t-38 -268v-78h-119v111q0 184 -22.5 333.5t-22.5 274.5zM530 578q0 -47 25 -75t74 -28 q51 0 74.5 27.5t23.5 75.5q0 102 -98 102q-51 0 -75 -27.5t-24 -74.5z" />
<glyph unicode="&#xe29;" horiz-adv-x="1378" d="M78 961q0 80 49 126t139 46q84 0 136.5 -46.5t52.5 -134.5v-884h364q94 0 139.5 36.5t45.5 128.5v154h-25q-100 0 -191.5 15.5t-150.5 58.5q-74 55 -74 145q0 76 44 113t110 37q68 0 112.5 -37t44.5 -111q0 -51 -27.5 -85t-64.5 -44v-6q18 -6 49 -13t78 -7q51 0 95 6v583 l71 84h47v-630q111 59 129 196q74 -8 74 -86q0 -66 -53 -121t-150 -79v-160q0 -137 -68.5 -191.5t-199.5 -54.5h-647v61h47q43 0 62.5 20.5t19.5 72.5v655q-33 -23 -82 -23q-78 0 -127 46.5t-49 128.5zM156 958q0 -106 104 -106q109 0 109 106t-107 107q-106 0 -106 -107z M633 606q0 -41 21.5 -65.5t62.5 -24.5q43 0 65.5 24.5t22.5 65.5q0 90 -88 90q-41 0 -62.5 -24.5t-21.5 -65.5z" />
<glyph unicode="&#xe2a;" horiz-adv-x="1218" d="M152 897q0 100 103 170t298 70q78 0 128 -10.5t90 -20.5t91 -10q88 0 127 33.5t39 72.5q45 0 70.5 -13t25.5 -52q0 -61 -68.5 -95t-170.5 -18l-4 -6q51 -45 71.5 -102.5t20.5 -129.5v-706l-72 -88h-45v164q0 147 -44 257.5t-123 172t-181 61.5t-159.5 -66.5t-57.5 -189.5 v-82q8 6 28.5 13.5t45.5 7.5q78 0 127 -45t49 -127q0 -80 -50.5 -126t-136.5 -46t-134 49t-48 139v184q0 188 90 274.5t227 86.5q133 0 225.5 -68.5t135.5 -156.5l6 2v299q0 141 -77 206.5t-230 65.5q-143 0 -213 -58.5t-70 -197.5q-63 -2 -88.5 17.5t-25.5 68.5zM256 158 q0 -107 102 -107t103 105q0 106 -103 106q-102 0 -102 -104z" />
<glyph unicode="&#xe2b;" horiz-adv-x="1286" d="M53 961q0 80 51.5 126t139.5 46q84 0 135 -46.5t51 -134.5v-723l8 -2q53 98 123 206t152 205t168 163q-53 12 -85 54t-32 106q0 78 48 125t132 47t133 -47.5t49 -124.5q0 -59 -29.5 -100.5t-78.5 -59.5v-4q37 -20 52 -60.5t15 -99.5v-559l-73 -88h-43v651q0 39 -7.5 67.5 t-29.5 45.5q-90 -70 -182.5 -182.5t-176.5 -258t-151 -313.5h-109v809q-31 -23 -84 -23q-78 0 -127 46.5t-49 128.5zM131 958q1 -106 105 -106q109 0 108 106q0 106 -106 107q-106 0 -107 -107zM840 958q0 -106 104 -106q47 0 76 27.5t29 78.5q0 53 -29 80t-74 27 q-106 0 -106 -107z" />
<glyph unicode="&#xe2c;" horiz-adv-x="1447" d="M47 961q0 80 50 126t141 46q84 0 135 -46.5t51 -134.5v-778h8l303 717h68l313 -715h8v901q0 57 -12 105q-61 -37 -137 -56.5t-162 -19.5q-121 0 -196.5 42t-75.5 122t77.5 123t206.5 43q205 0 316 -105q31 49 45 111.5t12 136.5q61 0 86 -16.5t25 -65.5q0 -141 -109 -248 q41 -78 41 -182v-991l-72 -86h-63l-336 786l-324 -776h-139v809q-31 -23 -84 -23q-76 0 -126 46.5t-50 128.5zM125 958q0 -106 106 -106t107 106q0 106 -107 107q-49 0 -77.5 -26.5t-28.5 -80.5zM655 1270q0 -49 45 -77t127 -28q152 0 252 90q-76 121 -248 121 q-78 0 -127 -26.5t-49 -79.5z" />
<glyph unicode="&#xe2d;" horiz-adv-x="1155" d="M162 899q0 98 95 168t294 70q217 0 315.5 -87t98.5 -255v-494q0 -162 -95.5 -241.5t-312.5 -79.5q-201 0 -296 71.5t-95 239.5v248q0 88 51 134t135 46q86 0 134.5 -48t48.5 -124q0 -82 -48.5 -127t-130.5 -45q-41 0 -71 16v-125q0 -119 65.5 -168t208.5 -49 q145 0 216 53.5t71 184.5v510q0 147 -78 207.5t-217 60.5q-137 0 -206 -56.5t-69 -189.5q-51 0 -82.5 14.5t-31.5 65.5zM250 547q0 -49 26.5 -78t77.5 -29t77 29t26 78q0 104 -103 104q-104 0 -104 -104z" />
<glyph unicode="&#xe2e;" horiz-adv-x="1155" d="M156 905q0 98 98 165t285 67q80 0 135 -10.5t99 -20.5t89 -10q76 0 118 32.5t42 75.5q43 0 69.5 -13t26.5 -54q0 -59 -65.5 -92t-186.5 -15l-4 -6q57 -45 80 -104.5t23 -124.5v-494q0 -162 -95.5 -241.5t-312.5 -79.5q-201 0 -296 71.5t-95 239.5v248q0 88 51 134t135 46 q86 0 134.5 -48t48.5 -124q0 -82 -48.5 -127t-130.5 -45q-41 0 -71 16v-125q0 -119 65.5 -168t208.5 -49q145 0 216 53.5t71 184.5v510q0 147 -80 207.5t-219 60.5t-207 -56.5t-68 -189.5q-59 0 -87.5 17.5t-28.5 68.5zM250 547q0 -49 26.5 -78t77.5 -29t77 29t26 78 q0 104 -103 104q-104 0 -104 -104z" />
<glyph unicode="&#xe2f;" horiz-adv-x="1060" d="M76 895q0 242 205 242q92 0 139 -48.5t47 -121.5q0 -78 -46 -125t-126 -47q-66 0 -105 32l-6 -4q10 -98 77 -146t153 -48q131 0 221 93t90 282v38l74 88h43v-1056l-72 -84h-45v741l-6 2q-35 -80 -108.5 -128t-192.5 -48q-162 0 -252 93t-90 245zM180 965q1 -107 103 -107 t102 107q0 104 -102 104t-103 -104z" />
<glyph unicode="&#xe30;" horiz-adv-x="964" d="M115 285q0 72 45 109.5t114 37.5q70 0 116 -38t46 -107q0 -57 -31.5 -90t-66.5 -41v-6q25 -10 60.5 -17.5t86.5 -7.5q76 0 140.5 25.5t103.5 79t39 135.5v43q57 2 81.5 -16.5t24.5 -69.5q0 -121 -109.5 -192t-277.5 -71q-92 0 -168.5 18.5t-125.5 55.5q-35 27 -56.5 65 t-21.5 87zM115 856q0 74 45 112t114 38q70 0 116 -38t46 -108q0 -57 -31.5 -90t-66.5 -41v-6q25 -10 60.5 -17.5t86.5 -7.5q76 0 140.5 26t103.5 79t39 133v43q57 4 81.5 -14.5t24.5 -71.5q0 -119 -109.5 -190.5t-277.5 -71.5q-92 0 -168.5 19.5t-125.5 56.5 q-35 27 -56.5 63.5t-21.5 85.5zM184 285q0 -41 23.5 -65.5t64.5 -24.5q43 0 66.5 24.5t23.5 65.5t-23.5 65.5t-66.5 24.5q-41 0 -64.5 -24.5t-23.5 -65.5zM184 856q0 -41 23.5 -65.5t64.5 -24.5q43 0 66.5 24.5t23.5 65.5t-23.5 65.5t-66.5 24.5q-41 0 -64.5 -24.5 t-23.5 -65.5z" />
<glyph unicode="&#xe31;" d="M-633 1503q0 74 48 111t118 37t118 -37t48 -109q0 -59 -34 -90t-71 -41v-6q27 -8 62 -16.5t92 -8.5q147 0 238.5 59.5t91.5 190.5v43q57 0 81.5 -17t24.5 -71q0 -127 -114.5 -198.5t-319.5 -71.5q-92 0 -171 17.5t-130 56.5q-37 29 -59.5 66.5t-22.5 84.5zM-557 1503 q0 -41 23.5 -65.5t64.5 -24.5q43 0 66.5 24.5t23.5 65.5t-23.5 65.5t-66.5 24.5q-41 0 -64.5 -24.5t-23.5 -65.5z" />
<glyph unicode="&#xe32;" horiz-adv-x="983" d="M43 909q0 96 96.5 162t263.5 66q379 0 379 -338v-721l-73 -88h-43v813q0 147 -71 204.5t-189 57.5q-111 0 -178.5 -56.5t-67.5 -189.5q-59 -2 -88 18.5t-29 71.5z" />
<glyph unicode="&#xe33;" horiz-adv-x="983" d="M-604 1466q0 88 56 141.5t153 53.5q98 0 154.5 -53.5t56.5 -141.5t-56.5 -141t-154.5 -53q-96 0 -152.5 53t-56.5 141zM-520 1466q0 -57 33 -90t92 -33t93 33t34 90t-34 90t-93 33t-92 -32.5t-33 -90.5zM43 909q0 96 96.5 162t263.5 66q379 0 379 -338v-721l-73 -88h-43 v813q0 147 -71 204.5t-189 57.5q-111 0 -178.5 -56.5t-67.5 -189.5q-59 -2 -88 18.5t-29 71.5z" />
<glyph unicode="&#xe34;" d="M-1042 1303v38q0 127 110.5 201t310.5 74q199 0 309.5 -76t110.5 -203v-34h-841zM-918 1366h592q-2 82 -79.5 130t-219.5 48q-141 0 -217 -48t-76 -130z" />
<glyph unicode="&#xe35;" d="M-1042 1303v36q0 127 103 202t298 75q133 0 221 -42t127 -112v117l55 70h37v-346h-841zM-918 1366h582q-4 78 -85 127t-216 49q-137 0 -209 -48t-72 -128z" />
<glyph unicode="&#xe36;" d="M-1071 1303v43q0 141 86 205.5t240 64.5q94 0 160.5 -30t95.5 -68q6 59 49 94t118 35q84 0 134.5 -45.5t50.5 -126.5q0 -78 -46 -125t-136 -47h-752zM-958 1364h473q0 74 -77 125t-188 51q-113 0 -160.5 -46t-47.5 -130zM-424 1477q0 -55 27.5 -81t74.5 -26t76 25.5 t29 79.5q0 55 -28.5 79.5t-76.5 24.5q-47 0 -74.5 -24.5t-27.5 -77.5z" />
<glyph unicode="&#xe37;" d="M-1067 1303v45q0 131 89 199.5t237 68.5q104 0 179 -38t116 -103v104l45 70h34v-285h78v215l51 70h37v-346h-866zM-952 1364h483q-4 41 -38 81t-94.5 67.5t-141.5 27.5q-106 0 -157.5 -50t-51.5 -126z" />
<glyph unicode="&#xe38;" d="M-537 -262q0 70 44 113t122 43q76 0 123 -41t47 -115v-260l-65 -78h-43v201q-10 -10 -29.5 -14.5t-40.5 -4.5q-72 0 -115 43t-43 113zM-467 -262q0 -45 24.5 -70.5t69.5 -25.5q47 0 72 25.5t25 70.5t-24 70.5t-71 25.5t-71.5 -25.5t-24.5 -70.5z" />
<glyph unicode="&#xe39;" d="M-868 -246q0 68 41 107t112 39q76 0 117 -38t41 -108v-190q0 -98 125 -99q123 0 123 99v248l65 77h43v-331q0 -78 -63.5 -118t-167.5 -40q-109 0 -170.5 40t-61.5 118v69q-25 -18 -59 -18q-63 0 -104 40t-41 105zM-805 -246q0 -41 23.5 -64.5t64.5 -23.5q45 0 67.5 23.5 t22.5 64.5t-22.5 65.5t-65.5 24.5t-66.5 -24.5t-23.5 -65.5z" />
<glyph unicode="&#xe3a;" d="M-473 -383q0 131 135 131q137 0 137 -131t-137 -131q-135 0 -135 131z" />
<glyph unicode="&#xe3f;" horiz-adv-x="1144" d="M78 74v61h45q66 0 98.5 24.5t32.5 119.5v907q0 90 -33 114.5t-98 24.5h-45v61h467h4v170h74v-172q186 -12 275 -89.5t89 -233.5q0 -135 -65.5 -198.5t-161.5 -92.5v-4q131 -16 206.5 -98t75.5 -232q0 -180 -104 -269t-315 -93v-236h-74v236h-471zM381 147h168v580h-168 v-580zM381 801h158h10v512h-14h-154v-512zM623 147q156 6 220 76t64 211q0 143 -60.5 215t-223.5 78v-580zM623 805q131 14 181 77.5t50 180.5q0 119 -53 176t-178 70v-504z" />
<glyph unicode="&#xe40;" horiz-adv-x="688" d="M225 172v866l74 88h43v-807q10 8 30.5 14.5t47.5 6.5q76 0 125 -45t49 -127q0 -78 -49 -125t-137 -47q-84 0 -133.5 46t-49.5 130zM307 168q1 -105 103 -105q104 0 104 105q0 49 -25.5 77.5t-76.5 28.5t-78 -28.5t-27 -77.5z" />
<glyph unicode="&#xe41;" horiz-adv-x="1325" d="M229 172v866l74 88h45v-807q8 8 28.5 14.5t47.5 6.5q76 0 125 -45t49 -127q0 -78 -49 -125t-135 -47t-135.5 46t-49.5 130zM311 168q1 -105 105 -105q102 0 102 105q0 49 -25.5 77.5t-76.5 28.5t-78 -28.5t-27 -77.5zM866 172v866l74 88h45v-807q10 8 29.5 14.5t46.5 6.5 q78 0 126 -45t48 -127q0 -78 -49 -125t-135 -47t-135.5 46t-49.5 130zM948 168q1 -105 105 -105q102 0 102 105q0 49 -24.5 77.5t-77.5 28.5t-79 -28.5t-26 -77.5z" />
<glyph unicode="&#xe42;" horiz-adv-x="735" d="M-59 1714v62q0 137 91 219t247 82q102 0 180 -26t147 -26q31 0 66 9.5t51 31.5q25 -18 25 -51q0 -51 -40 -71.5t-104 -20.5q-61 0 -113.5 14.5t-105.5 28.5t-121 14q-121 0 -177 -49t-64 -151q145 -2 229 -47t120 -126t36 -192v-1100q10 6 30.5 12.5t46.5 6.5 q76 0 125 -45t49 -127q0 -78 -49 -125t-137 -47q-84 0 -133 46t-49 130v1259q0 94 -30 159t-105.5 97.5t-214.5 32.5zM371 162q0 -105 104 -105q102 0 103 105q0 49 -25 77.5t-78 28.5t-78.5 -28.5t-25.5 -77.5z" />
<glyph unicode="&#xe43;" horiz-adv-x="712" d="M-27 1792q0 127 84 206t236 79q154 0 237.5 -84t83.5 -215q0 -119 -65.5 -210t-167.5 -153v-1100q8 6 29.5 12.5t48.5 6.5q76 0 125 -45t49 -127q0 -78 -49.5 -125t-137.5 -47q-84 0 -133 46t-49 130v1292q109 49 178.5 127t69.5 195q0 113 -63.5 170t-163.5 57 q-80 0 -129.5 -26.5t-74 -65.5t-30.5 -76l8 -4q16 31 47 41t62 10q72 0 113 -41t41 -108q0 -70 -43 -114t-121 -44q-88 0 -136.5 58.5t-48.5 154.5zM74 1733q0 -41 24.5 -66t63.5 -25t62.5 25t23.5 66t-23.5 65.5t-62.5 24.5t-63.5 -24.5t-24.5 -65.5zM344 162 q1 -105 105 -105q102 0 102 105q0 49 -25.5 77.5t-76.5 28.5t-78 -28.5t-27 -77.5z" />
<glyph unicode="&#xe44;" horiz-adv-x="686" d="M-72 2025q0 51 82 52q82 0 150.5 -51.5t93.5 -141.5l160 193q119 -16 178 -97.5t59 -193.5q0 -123 -66.5 -215t-168.5 -152v-1104q10 6 30.5 12.5t47.5 6.5q76 0 125 -45t49 -127q0 -78 -49.5 -125t-137.5 -47q-84 0 -133 46t-49 130v1298q117 55 183.5 132t66.5 188 q0 82 -37 131t-94 61l-158 -192h-39q-27 88 -81 143t-126 55q-14 0 -30.5 -2t-30.5 -6q-25 25 -25 51zM379 162q0 -105 104 -105q102 0 103 105q0 49 -24.5 77.5t-78.5 28.5q-53 0 -78.5 -28.5t-25.5 -77.5z" />
<glyph unicode="&#xe45;" horiz-adv-x="989" d="M43 909q0 96 96.5 162t263.5 66q379 0 379 -338v-1202l-73 -89h-43v1295q0 147 -71 204.5t-189 57.5q-111 0 -178.5 -56.5t-67.5 -189.5q-59 -2 -88 18.5t-29 71.5z" />
<glyph unicode="&#xe46;" horiz-adv-x="1056" d="M92 778q0 160 61.5 246t172.5 119l151 -121l152 121q127 -25 180 -96.5t53 -184.5v-1265l-74 -89h-43v1356q0 78 -21.5 124t-94.5 73l-152 -117l-147 117q-61 -33 -96 -97.5t-31 -156.5l8 -4q37 31 94 31q72 0 120 -42t48 -118q0 -72 -45 -116t-131 -44q-111 0 -158 76 t-47 188zM199 674q0 -96 98 -96t98 96q0 47 -25.5 71.5t-70.5 24.5q-100 0 -100 -96z" />
<glyph unicode="&#xe47;" d="M-913 1534q0 117 71.5 178.5t196.5 61.5h481v-33l-67 -37h-396q-106 0 -147 -46t-41 -122q0 -59 20.5 -99t53.5 -63l112 129h17q18 -27 49 -62.5t57 -54.5l6 5q-8 25 -8 53q0 55 42 91t110 36q66 0 106.5 -38t40.5 -103q0 -59 -39 -101.5t-123 -42.5q-70 0 -132 31 t-118 100l-106 -121q-76 2 -131 66.5t-55 171.5zM-440 1427q0 -79 82 -79q80 0 79 79q0 82 -79 82q-82 0 -82 -82z" />
<glyph unicode="&#xe48;" d="M-330 1573v178h127v-178l-33 -283h-61z" />
<glyph unicode="&#xe49;" d="M-823 1608q0 66 44 105.5t120 39.5q84 0 125.5 -51t41.5 -133q0 -57 -20 -109.5t-59 -85.5l2 -8q164 -2 265 84t97 240q57 0 74.5 -20.5t17.5 -65.5q0 -76 -50 -145.5t-152 -116t-258 -46.5q-37 0 -97.5 3.5t-99.5 9.5v43q92 10 142 53t63 88l-8 6q-23 -18 -46.5 -25.5 t-50.5 -7.5q-66 0 -108.5 37t-42.5 105zM-754 1610q0 -41 23.5 -62.5t62.5 -21.5t63.5 21.5t24.5 62.5q0 37 -24.5 59.5t-63.5 22.5t-62.5 -22.5t-23.5 -59.5z" />
<glyph unicode="&#xe4a;" d="M-915 1518q0 109 51 175t162 81l110 -95l129 95q74 -16 129 -65.5t55 -143.5q0 -53 -20 -100.5t-53 -82.5l4 -8q100 2 156.5 48t80 123t23.5 175q63 0 79.5 -22.5t16.5 -59.5q0 -86 -37 -161.5t-118.5 -122.5t-217.5 -47q-53 0 -122 6v41q53 23 89 79t36 123 q0 66 -32 101t-73 47l-125 -98l-119 100q-63 -2 -95 -47t-32 -94l7 -6q37 29 88 28q63 0 105 -35.5t42 -101.5q0 -61 -40 -102t-112 -41q-86 0 -126.5 57t-40.5 154zM-827 1446q0 -78 82 -78q80 0 79 78q0 82 -79 82q-82 0 -82 -82z" />
<glyph unicode="&#xe4b;" d="M-678 1495v107h21l180 -17l-17 187v20h113v-20l-16 -187l176 17h20v-107h-20l-176 16l16 -188v-20h-113v20l17 188l-180 -16h-21z" />
<glyph unicode="&#xe4c;" d="M-649 1434q0 45 19.5 85t64.5 64q35 18 89 32.5t115.5 36t119 59.5t96.5 101q31 0 45 -17t14 -40q0 -76 -94 -125t-240 -63v-6q35 -8 63.5 -41t28.5 -90q0 -70 -46.5 -108t-114.5 -38q-70 0 -115 37t-45 113zM-580 1432q0 -41 23.5 -66t64.5 -25q43 0 67 25t24 66 t-24 65.5t-67 24.5q-41 0 -64.5 -24.5t-23.5 -65.5z" />
<glyph unicode="&#xe4d;" d="M-526 1466q0 88 56 141.5t153 53.5q98 0 153 -53.5t55 -141.5t-55 -141t-153 -53q-96 0 -152.5 53t-56.5 141zM-442 1466q0 -123 125 -123q59 0 93 33t34 90t-34 90t-93 33q-125 0 -125 -123z" />
<glyph unicode="&#xe4e;" d="M-498 1432q0 63 44 86.5t108 21.5l2 8q-27 14 -39 39t-12 53q0 68 58 96.5t159 28.5h51q6 -16 6 -26q0 -23 -17.5 -31t-39.5 -6q-57 2 -99 -13.5t-42 -66.5q0 -33 21.5 -49.5t53.5 -16.5h15v-55h-50q-70 0 -104.5 -14t-34.5 -53q0 -41 36 -57.5t91 -16.5h31v-57h-31 q-115 0 -161 36.5t-46 92.5z" />
<glyph unicode="&#xe4f;" horiz-adv-x="1230" d="M145 465q0 225 120 353t349 128q225 0 347 -125t122 -356t-122 -355t-347 -124q-229 0 -349 126t-120 353zM264 463q0 -197 87 -302.5t263 -105.5t264.5 105.5t88.5 302.5t-88 304t-265 107q-176 0 -263 -107.5t-87 -303.5zM397 465q0 133 55.5 203.5t161.5 70.5 q109 0 164.5 -70.5t55.5 -203.5t-55.5 -204t-164.5 -71q-106 0 -161.5 71t-55.5 204z" />
<glyph unicode="&#xe50;" horiz-adv-x="1208" d="M145 465q0 225 119 353t340 128q217 0 337 -125t120 -356t-120 -355t-337 -124q-221 0 -340 126t-119 353zM264 463q0 -197 86 -302.5t254 -105.5q166 0 253 105.5t87 302.5t-87 304t-253 107q-168 0 -254 -107.5t-86 -303.5z" />
<glyph unicode="&#xe51;" horiz-adv-x="1232" d="M145 477q0 217 120 343t351 126q229 0 350 -126t121 -363q0 -193 -76.5 -325t-189.5 -210l-37 43q80 96 132.5 212t52.5 280q0 217 -92.5 317t-262.5 100q-172 0 -262 -101t-90 -318q0 -82 17.5 -153t46.5 -109l6 2q4 68 51 107.5t125 39.5q84 0 132 -49t48 -129 q0 -70 -47 -120t-147 -50q-109 0 -187 61.5t-120 170t-42 251.5zM399 166q0 -47 26 -77t81 -30q51 0 76.5 29t25.5 78t-25.5 77.5t-78.5 28.5t-79 -28.5t-26 -77.5z" />
<glyph unicode="&#xe52;" horiz-adv-x="1323" d="M195 350v944q59 0 87.5 -16t28.5 -82v-870q0 -150 94.5 -213.5t270.5 -63.5q180 0 273 67.5t93 231.5v322q0 78 -19 124t-91 74l-152 -118l-149 118q-68 -31 -97.5 -99.5t-29.5 -133.5l8 -4q41 37 104 37q72 0 119 -42t47 -118q0 -70 -45 -116t-127 -46q-190 0 -190 250 q0 129 53 221t158 129l149 -121l148 121q137 -29 184 -109.5t47 -195.5v-281q0 -193 -115.5 -286.5t-371.5 -93.5q-238 0 -357.5 87t-119.5 283zM510 506q0 -96 98 -96t99 96q0 96 -99 96q-98 0 -98 -96z" />
<glyph unicode="&#xe53;" horiz-adv-x="1386" d="M164 172v506q0 135 76.5 201.5t201.5 66.5q94 0 163 -37t100 -110h8q29 72 91 109.5t148 37.5q113 0 191 -64.5t78 -199.5v-604l-74 -88h-45v686q0 106 -44 153.5t-126 47.5q-84 0 -126 -49.5t-42 -157.5v-670h-115v670q0 109 -50 158t-136 49t-134 -49.5t-48 -155.5 v-361q33 18 79 19q74 0 125.5 -46t51.5 -126q0 -78 -49.5 -125t-139.5 -47q-88 0 -136 48t-48 138zM246 156q0 -49 25.5 -78t78.5 -29t79 28.5t26 78.5q0 49 -26 77.5t-79 28.5t-78.5 -28.5t-25.5 -77.5z" />
<glyph unicode="&#xe54;" horiz-adv-x="1210" d="M154 463q0 236 130 349.5t373 113.5h91q109 0 149.5 37.5t40.5 150.5v180q51 0 84 -16t33 -84v-66q0 -109 -30 -168t-93.5 -81.5t-165.5 -22.5h-104q-182 0 -284 -95t-102 -296q0 -186 83 -290.5t274 -104.5h217q-117 76 -164 166t-47 186q0 102 52 148t136 46 q82 0 134.5 -45t52.5 -127q0 -88 -56.5 -129t-126.5 -41q-45 0 -77 17q27 -57 75 -109.5t106 -85.5t120 -33h16q0 -27 -16.5 -45t-48.5 -18h-416q-227 0 -331.5 127t-104.5 336zM721 444q0 -106 106 -106q104 0 105 106q0 104 -105 105q-106 0 -106 -105z" />
<glyph unicode="&#xe55;" horiz-adv-x="1210" d="M154 463q0 180 77.5 288.5t223.5 149.5q-31 20 -50.5 54t-19.5 81q0 84 52 130t143 46q90 0 142 -46t52 -130q0 -68 -41 -110h15q109 0 149.5 37.5t40.5 150.5v180q51 0 84 -16t33 -84v-66q0 -109 -30 -168t-93.5 -81.5t-165.5 -22.5h-104q-182 0 -284 -95t-102 -296 q0 -186 83 -290.5t274 -104.5h217q-117 76 -164 166t-47 186q0 102 52 148t136 46q82 0 134.5 -45t52.5 -127q0 -88 -56.5 -129t-126.5 -41q-45 0 -77 17q27 -57 75 -109.5t106 -85.5t120 -33h16q0 -27 -16.5 -45t-48.5 -18h-416q-227 0 -331.5 127t-104.5 336zM465 1036 q0 -53 32 -81.5t83 -28.5t82.5 28.5t31.5 81.5t-31.5 82t-82.5 29t-83 -28.5t-32 -82.5zM721 444q0 -106 106 -106q104 0 105 106q0 104 -105 105q-106 0 -106 -105z" />
<glyph unicode="&#xe56;" horiz-adv-x="1157" d="M125 1294q61 6 86 -5t33 -68l53 -398q51 70 132 96.5t163 26.5q195 0 302 -127t107 -356q0 -217 -107 -346t-314 -129q-174 0 -283 86q-43 33 -69.5 78t-26.5 104q0 76 48 127t140 51q72 0 130.5 -40t58.5 -132q0 -80 -48.5 -122t-109.5 -48q27 -16 62.5 -26.5 t86.5 -10.5q156 0 235 105.5t79 310.5q0 195 -76 300.5t-229 105.5q-106 0 -170 -42t-93.5 -111t-29.5 -153h-58zM283 260q0 -53 28.5 -81.5t77.5 -28.5q106 0 107 110q0 111 -107 111q-49 0 -77.5 -30t-28.5 -81z" />
<glyph unicode="&#xe57;" horiz-adv-x="1531" d="M164 172v537q0 131 69.5 184t169.5 53q170 0 215 -143q25 76 75 109.5t134 33.5q96 0 163 -49t67 -172v-668q100 0 152.5 66.5t52.5 228.5v942q59 6 82.5 -14t23.5 -86v-809q0 -152 -37 -237t-114.5 -118.5t-200.5 -33.5h-76v719q0 100 -41 129.5t-90 29.5 q-145 0 -145 -204v-314h-95v310q0 109 -34.5 158.5t-112.5 49.5q-57 0 -99 -32.5t-42 -136.5v-394q33 18 81 19q72 0 123.5 -46t51.5 -128q0 -78 -49.5 -124t-139.5 -46q-88 0 -136 48t-48 138zM248 156q0 -49 25.5 -78t78.5 -29t79 28.5t26 78.5q0 49 -25.5 77.5 t-79.5 28.5q-53 0 -78.5 -28.5t-25.5 -77.5z" />
<glyph unicode="&#xe58;" horiz-adv-x="1249" d="M154 430q0 260 117.5 378t375.5 118h131q109 0 150 37.5t41 150.5v180q51 0 83.5 -16t32.5 -84v-66q0 -109 -29.5 -168t-93 -81.5t-165.5 -22.5h-146q-193 0 -284 -99.5t-91 -326.5q0 -113 18.5 -180.5t47.5 -103t59.5 -48t55.5 -12.5l100 186h76q31 -123 76 -173 t129 -50q96 0 133 56.5t37 166.5v31.5t-2 24.5q-35 -45 -117 -45q-78 0 -128 45t-50 127q0 84 53 127t141 43q119 0 164 -76t45 -215q0 -109 -23.5 -187.5t-83.5 -122.5t-171 -44q-123 0 -175.5 50t-74.5 138h-8l-93 -180q-92 0 -167.5 39t-119.5 135t-44 268zM788 455 q1 -107 107 -107t106 107q0 104 -106 104t-107 -104z" />
<glyph unicode="&#xe59;" horiz-adv-x="1294" d="M164 172v524q0 139 68.5 194.5t179.5 55.5q78 0 131 -28.5t80 -96.5q18 70 63 99.5t115 29.5q94 0 136 -43t64 -110l35 -109q90 27 90 266v340q59 0 82 -17t23 -83v-225q0 -195 -63.5 -277t-192.5 -88l-41 131q-25 82 -51.5 114t-81.5 32q-68 0 -95.5 -58.5t15.5 -197.5 l192 -625h-122l-209 692q-27 86 -58.5 135.5t-109.5 49.5q-68 0 -100.5 -43t-32.5 -154v-369q33 18 81 19q72 0 123.5 -46t51.5 -128q0 -78 -49.5 -124t-139.5 -46q-88 0 -136 48t-48 138zM246 156q0 -49 25.5 -78t78.5 -29t79 28.5t26 78.5q0 49 -26 77.5t-79 28.5 t-78.5 -28.5t-25.5 -77.5z" />
<glyph unicode="&#xe5a;" horiz-adv-x="1472" d="M76 895q0 242 205 242q92 0 139 -48.5t47 -121.5q0 -78 -46 -125t-126 -47q-66 0 -105 32l-6 -4q10 -98 77 -146t153 -48q131 0 221 93t90 282v38l74 88h43v-501q137 4 227 97t90 278v38l74 88h43v-1052l-74 -88h-43v741l-6 2q-35 -80 -110.5 -128t-200.5 -48v-483 l-72 -84h-45v741l-6 2q-35 -80 -108.5 -128t-192.5 -48q-162 0 -252 93t-90 245zM180 965q1 -107 103 -107t102 107q0 104 -102 104t-103 -104z" />
<glyph unicode="&#xe5b;" horiz-adv-x="1740" d="M92 526q0 162 97.5 255t263.5 93q152 0 242.5 -74.5t90.5 -197.5q0 -94 -52 -141t-132 -47q-76 0 -127 40t-51 121q0 70 43 113t121 43q18 0 30.5 -3t20.5 -5l4 6q-20 35 -65.5 56.5t-108.5 21.5q-125 0 -196.5 -79t-71.5 -200q0 -139 90 -222t241 -83q369 0 455 537h55 l121 -367h8l103 367h55l98 -311q16 -6 44 -9.5t49 -3.5q49 0 99 13.5t73 35.5q18 -23 18 -43q0 -33 -38 -58.5t-103 -25.5q-35 0 -93.5 11.5t-111.5 40.5l-57 211h-9l-104 -392h-51l-119 369h-8q-27 -127 -85.5 -228.5t-158.5 -159.5t-250 -58q-115 0 -213 39.5 t-157.5 122.5t-59.5 212zM504 571q0 -45 26.5 -69.5t69.5 -24.5t69.5 24.5t26.5 69.5q0 47 -26.5 72t-69.5 25t-69.5 -25t-26.5 -72z" />
<glyph unicode="&#x2000;" horiz-adv-x="1081" />
<glyph unicode="&#x2001;" horiz-adv-x="2163" />
<glyph unicode="&#x2002;" horiz-adv-x="1081" />
<glyph unicode="&#x2003;" horiz-adv-x="2163" />
<glyph unicode="&#x2004;" horiz-adv-x="721" />
<glyph unicode="&#x2005;" horiz-adv-x="540" />
<glyph unicode="&#x2006;" horiz-adv-x="360" />
<glyph unicode="&#x2007;" horiz-adv-x="360" />
<glyph unicode="&#x2008;" horiz-adv-x="270" />
<glyph unicode="&#x2009;" horiz-adv-x="432" />
<glyph unicode="&#x200a;" horiz-adv-x="120" />
<glyph unicode="&#x200b;" />
<glyph unicode="&#x200c;" d="M-43 -272v1558h86v-1558h-86z" />
<glyph unicode="&#x200d;" d="M-223 1024l168 168l-168 166l53 55l170 -170l170 170l53 -55l-168 -166l168 -168l-53 -55l-127 127v-1368h-86v1368l-127 -127z" />
<glyph unicode="&#x2010;" horiz-adv-x="634" d="M51 504v110h533v-110h-533z" />
<glyph unicode="&#x2011;" horiz-adv-x="634" d="M51 504v110h533v-110h-533z" />
<glyph unicode="&#x2012;" horiz-adv-x="634" d="M51 504v110h533v-110h-533z" />
<glyph unicode="&#x2013;" horiz-adv-x="1125" d="M51 504v110h1024v-110h-1024z" />
<glyph unicode="&#x2014;" horiz-adv-x="2149" d="M51 504v110h2048v-110h-2048z" />
<glyph unicode="&#x202f;" horiz-adv-x="432" />
<glyph unicode="&#x205f;" horiz-adv-x="540" />
<glyph unicode="&#x25cc;" horiz-adv-x="1216" d="M98 596q0 23 16.5 38t37.5 15q20 0 36.5 -15.5t16.5 -37.5q0 -23 -16.5 -38t-36.5 -15t-37 15t-17 38zM135 424q0 23 16.5 38t36.5 15t37 -15.5t17 -37.5q0 -23 -17 -38t-37 -15t-36.5 15t-16.5 38zM135 768q0 23 16.5 38t36.5 15t37 -15t17 -38t-17 -38t-37 -15 t-36.5 15t-16.5 38zM231 272q0 23 15.5 38.5t38.5 15.5t38 -15.5t15 -38.5t-15 -38t-38 -15t-38.5 15.5t-15.5 37.5zM231 920q0 23 15.5 38t38.5 15t38 -15.5t15 -37.5q0 -23 -15 -38.5t-38 -15.5t-38.5 15.5t-15.5 38.5zM383 176q0 20 15.5 36.5t37.5 16.5q23 0 38 -16 t15 -37q0 -20 -15 -36.5t-38 -16.5t-38 16.5t-15 36.5zM383 1016q0 20 15.5 36.5t37.5 16.5q23 0 38 -16.5t15 -36.5t-15 -36.5t-38 -16.5t-38 16t-15 37zM555 139q0 20 15.5 37t37.5 17q23 0 38.5 -16.5t15.5 -37.5q0 -20 -15.5 -36.5t-38.5 -16.5t-38 16.5t-15 36.5z M555 1053q0 20 15.5 36.5t37.5 16.5q23 0 38.5 -16.5t15.5 -36.5t-15.5 -37t-38.5 -17t-38 16.5t-15 37.5zM727 176q0 20 15.5 36.5t37.5 16.5q23 0 38.5 -16t15.5 -37q0 -20 -15.5 -36.5t-38.5 -16.5t-38 16.5t-15 36.5zM727 1016q0 20 15.5 36.5t37.5 16.5 q23 0 38.5 -16.5t15.5 -36.5t-15.5 -36.5t-38.5 -16.5t-38 16t-15 37zM879 272q0 23 15 38.5t38 15.5t38 -15.5t15 -38.5t-15 -38t-38 -15t-38 15.5t-15 37.5zM879 920q0 23 15 38t38 15t38 -15.5t15 -37.5q0 -23 -15 -38.5t-38 -15.5t-38 15.5t-15 38.5zM975 424 q0 23 16.5 38t36.5 15t36.5 -15.5t16.5 -37.5q0 -23 -16.5 -38t-36.5 -15t-36.5 15t-16.5 38zM975 768q0 23 16.5 38t36.5 15t36.5 -15t16.5 -38t-16.5 -38t-36.5 -15t-36.5 15t-16.5 38zM1012 596q0 23 16 38t37 15q20 0 36.5 -15.5t16.5 -37.5q0 -23 -16.5 -38t-36.5 -15 t-36.5 15t-16.5 38z" />
<glyph unicode="&#x25fc;" horiz-adv-x="1024" d="M0 0z" />
<glyph horiz-adv-x="1228" d="M193 0v1462h841v-1462h-841zM297 104h633v1254h-633v-1254z" />
<glyph horiz-adv-x="1212" d="M170 860q0 129 111.5 203t306.5 74q207 0 313.5 -89.5t106.5 -263.5v-1106l-74 -88h-43v1172q0 305 -307 305q-143 0 -220 -61.5t-73 -176.5l209 -96q29 -14 28 -43q0 -25 -16 -35q-199 -10 -199 -211v-133q33 18 80 19q74 0 124 -46t50 -128q0 -78 -49 -124t-139 -46 q-88 0 -136 48t-48 138v270q0 215 206 260v7l-223 73q-4 20 -6 40t-2 38zM279 156q0 -49 25.5 -78t78.5 -29t78.5 28.5t25.5 78.5q0 49 -25.5 77.5t-78.5 28.5t-78.5 -28.5t-25.5 -77.5z" />
<glyph horiz-adv-x="1273" d="M57 158q0 84 50.5 128t119.5 44q41 0 76 -17v142q0 104 31 160.5t119 82.5v7l-232 73q-4 20 -6 40t-2 38q0 131 114.5 206t313.5 75q211 0 319.5 -89.5t108.5 -265.5v-1104l-74 -88h-45v1170q0 158 -77.5 232.5t-235.5 74.5q-150 0 -227.5 -63.5t-75.5 -178.5l217 -98 q31 -12 31 -41q0 -25 -17 -35q-82 0 -113.5 -43t-31.5 -145v-289q0 -90 -48 -139t-132 -49t-133.5 46t-49.5 126zM137 156q1 -105 99 -105q47 0 73.5 27.5t26.5 79.5q0 104 -100 104q-98 0 -99 -106z" />
<glyph horiz-adv-x="1269" d="M57 158q0 84 50.5 128t119.5 44q41 0 76 -17v142q0 104 31 160.5t119 82.5v7l-232 73q-4 20 -6 40t-2 38q0 131 114.5 206t313.5 75q211 0 319.5 -89.5t108.5 -265.5v-1104l-74 -88h-37q-43 49 -95 90t-109 72q-45 -78 -135.5 -128t-221.5 -50q-113 0 -186.5 42 t-73.5 122q0 82 80 122t193 40q72 0 141.5 -15.5t132.5 -40.5q16 68 14 154q59 10 80 -10.5t21 -73.5q0 -57 -21 -111q51 -27 93 -56.5t73 -59.5h6v1073q0 158 -77.5 232.5t-235.5 74.5q-150 0 -227.5 -63.5t-75.5 -178.5l217 -98q31 -12 31 -41q0 -25 -17 -35 q-82 0 -113.5 -43t-31.5 -145v-289q0 -90 -48 -139t-132 -49t-133.5 46t-49.5 126zM137 156q1 -105 99 -105q47 0 73.5 27.5t26.5 79.5q0 104 -100 104q-98 0 -99 -106zM254 -264q0 -102 160 -103q74 0 144.5 33t109.5 125q-125 49 -242 49q-172 0 -172 -104z" />
<glyph horiz-adv-x="1269" d="M57 158q0 84 50.5 128t119.5 44q41 0 76 -17v142q0 104 31 160.5t119 82.5v7l-232 73q-4 20 -6 40t-2 38q0 131 114.5 206t313.5 75q211 0 319.5 -89.5t108.5 -265.5v-1104l-74 -88h-45v254h-6l-194 -254h-35q-43 92 -142 168q-37 -82 -106.5 -133t-175.5 -51 q-94 0 -154.5 45t-60.5 121q0 84 68.5 128t174.5 44q51 0 99.5 -10.5t91.5 -28.5q8 74 2 166q61 10 79.5 -12.5t18.5 -75.5q0 -66 -14 -125q47 -31 83 -66.5t58 -70.5l213 270v801q0 158 -77.5 232.5t-235.5 74.5q-150 0 -227.5 -63.5t-75.5 -178.5l217 -98q31 -12 31 -41 q0 -25 -17 -35q-82 0 -113.5 -43t-31.5 -145v-289q0 -90 -48 -139t-132 -49t-133.5 46t-49.5 126zM137 156q1 -105 99 -105q47 0 73.5 27.5t26.5 79.5q0 104 -100 104q-98 0 -99 -106zM186 -262q0 -49 35 -77t84 -28q66 0 116 42t75 132q-37 20 -78 31.5t-82 11.5 q-72 0 -111 -31.5t-39 -80.5z" />
<glyph horiz-adv-x="1753" d="M170 860q0 129 111.5 203t298.5 74q199 0 307 -89.5t108 -263.5v-716h254q94 0 139.5 36.5t45.5 128.5v809l71 84h47v-880q0 -137 -68.5 -191.5t-199.5 -54.5h-489v61h18q66 0 66 80v621q0 305 -301 305q-137 0 -214 -61.5t-73 -176.5l209 -96q29 -14 28 -43 q0 -25 -16 -35q-199 -10 -199 -211v-133q33 18 80 19q74 0 124 -46t50 -128q0 -78 -49 -124t-139 -46q-88 0 -136 48t-48 138v270q0 215 206 260v7l-223 73q-4 20 -6 40t-2 38zM279 156q0 -49 25.5 -78t78.5 -29t78.5 28.5t25.5 78.5q0 49 -25.5 77.5t-78.5 28.5 t-78.5 -28.5t-25.5 -77.5z" />
<glyph horiz-adv-x="1138" d="M125 539q0 76 50 124t138 48q84 0 136.5 -46.5t52.5 -134.5v-288q0 -96 31.5 -139.5t113.5 -43.5q94 0 128 49.5t34 143.5v545q0 147 -78 206.5t-217 59.5q-123 0 -198.5 -56.5t-75.5 -187.5q-57 0 -86 17.5t-29 66.5q0 98 106.5 166t282.5 68q84 0 135 -10.5t90 -20.5 t88 -10q82 0 120 31.5t38 74.5q43 0 69.5 -14t26.5 -55q0 -59 -66.5 -90t-180.5 -15l-5 -6q53 -41 76 -99.5t23 -129.5v-514q0 -152 -69 -220.5t-214 -68.5t-202.5 62.5t-57.5 189.5v147q-35 -23 -84 -22q-74 0 -125 45t-51 127zM203 537q0 -107 104 -107q109 0 109 107 q0 106 -107 106q-106 0 -106 -106z" />
<glyph horiz-adv-x="1447" d="M61 961q0 80 49.5 126t133.5 46t132 -46.5t48 -125.5v-805h8l303 592h68l313 -588h8v669q0 37 -6 70q-59 -25 -123.5 -38t-130.5 -13q-115 0 -188.5 43t-73.5 117q0 78 74 119.5t190 41.5q211 0 310 -133q33 37 53 82t28 101q47 2 77 -14.5t30 -61.5q0 -51 -40 -101.5 t-103 -91.5q20 -59 20 -133v-741l-72 -86h-65l-334 657l-324 -647h-139v809q-12 -10 -32.5 -14t-41.5 -4q-78 0 -125 46t-47 124zM133 961q1 -105 105 -105q47 0 74.5 26.5t27.5 78.5q0 51 -27.5 78.5t-74.5 27.5q-104 0 -105 -106zM711 1008q0 -43 40 -72t121 -29 q123 0 224 62q-31 66 -90.5 103.5t-141.5 37.5q-66 0 -109.5 -26.5t-43.5 -75.5z" />
<glyph d="M-1493 -147h1217v-89h-1217v89z" />
<glyph d="M-1120 1501q0 74 46 112t116 38q68 0 114.5 -37t46.5 -109q0 -59 -31.5 -90t-68.5 -41v-6q20 -8 51 -16.5t74 -8.5q139 0 200.5 75t61.5 218q109 25 109 -86q0 -125 -102.5 -198.5t-260.5 -73.5q-72 0 -148.5 16.5t-129.5 57.5q-78 61 -78 149zM-1049 1503 q0 -41 23.5 -65.5t64.5 -24.5q43 0 67 24.5t24 65.5t-24 65.5t-67 24.5q-41 0 -64.5 -24.5t-23.5 -65.5z" />
<glyph d="M-317 1980v164h127v-164l-33 -231h-62z" />
<glyph d="M-664 1573v178h127v-178l-32 -283h-64z" />
<glyph d="M-600 2021q0 59 41 95t110 36q80 0 119 -44t39 -115q0 -109 -76 -172l2 -11q133 0 210 76t73 207q63 4 76.5 -21.5t13.5 -46.5q0 -117 -102.5 -196.5t-290.5 -79.5q-33 0 -84 3t-90 9v39q88 10 137 48t62 77l-9 4q-39 -33 -90 -33q-59 0 -100 33t-41 92zM-532 2023 q0 -33 21 -53t58 -20q35 0 56.5 20.5t21.5 52.5q0 35 -21.5 54.5t-56.5 19.5q-80 0 -79 -74z" />
<glyph d="M-1030 1602q0 66 44 104.5t120 38.5q84 0 126 -50t42 -134q0 -57 -19.5 -108.5t-58.5 -82.5l2 -10q139 -2 221 89t78 228q55 0 73.5 -18.5t18.5 -61.5q0 -74 -43 -144.5t-131 -116.5t-223 -46q-37 0 -97.5 3t-101.5 10v43q92 10 142.5 53t62.5 88l-8 6q-41 -33 -97 -33 q-66 0 -108.5 37t-42.5 105zM-961 1604q0 -39 24 -62.5t63 -23.5t63.5 23.5t24.5 62.5q0 37 -25 59.5t-63 22.5q-39 0 -63 -23t-24 -59z" />
<glyph d="M-694 1929q0 92 45 148.5t139 66.5l92 -76l101 76q66 -14 111.5 -54t45.5 -122q0 -92 -63 -151l6 -7q86 10 133 88t45 203q55 0 67.5 -18.5t12.5 -52.5q0 -113 -71.5 -197t-205.5 -84h-47.5t-54.5 4v37q45 20 75 68.5t30 103.5t-25 83t-59 38l-101 -78l-98 80 q-53 -4 -82 -42t-29 -75l6 -6q31 25 76 25q55 0 90 -31t35 -84t-33 -88t-96 -35q-72 0 -108.5 49t-36.5 131zM-616 1868q-1 -68 69 -68t70 68q0 70 -70 69q-70 0 -69 -69z" />
<glyph d="M-1208 1505q0 102 48 170t148 80l101 -78l114 78q68 -16 122 -64.5t54 -144.5q0 -106 -71 -182l4 -8q86 2 133 48t66.5 124t19.5 176q63 0 78.5 -22.5t15.5 -61.5q0 -92 -37 -167t-109.5 -120t-185.5 -45q-20 0 -54 1t-68 5v41q53 25 90 80t37 123q0 66 -32 99.5 t-67 48.5l-110 -80l-109 80q-49 -6 -78.5 -50.5t-27.5 -87.5l8 -6q35 27 86 27q66 0 106.5 -36t40.5 -101q0 -61 -39.5 -102.5t-111.5 -41.5q-86 0 -129 58.5t-43 158.5zM-1116 1427q0 -35 21.5 -56t60.5 -21t59.5 21.5t20.5 55.5q0 82 -80 82q-82 0 -82 -82z" />
<glyph d="M-618 1901v106h20l152 -16l-17 147v21h113v-21l-17 -147l146 16h20v-106h-20l-146 16l17 -148v-20h-113v20l17 148l-152 -16h-20z" />
<glyph d="M-498 1884q0 41 19.5 74t64.5 55q41 18 105.5 34.5t131 42.5t111.5 73q20 -4 33 -22.5t4 -45.5q-14 -55 -91 -73.5t-169 -22.5v-4q39 -8 65.5 -37t26.5 -80q0 -63 -46 -96t-105 -33t-104.5 34t-45.5 101zM-428 1880q0 -80 78 -80q82 0 82 80t-82 80q-78 0 -78 -80z" />
<glyph d="M-821 1434q0 45 19.5 85t64.5 64q35 18 89 32.5t115.5 36t119 59.5t96.5 101q31 0 46 -17t15 -40q0 -76 -94 -125t-242 -63v-6q35 -8 63.5 -41t28.5 -90q0 -70 -47 -108t-115 -38q-70 0 -114.5 37t-44.5 113zM-752 1432q0 -41 23.5 -66t64.5 -25q43 0 67 25t24 66 t-24 65.5t-67 24.5q-41 0 -64.5 -24.5t-23.5 -65.5z" />
<glyph d="M-1118 1534q0 117 71.5 177.5t198.5 60.5h463v-33l-70 -37h-374q-109 0 -149 -46t-40 -120q0 -61 19.5 -100t54.5 -60l94 127h16q18 -29 49 -63.5t56 -53.5l6 5q-8 25 -8 51q0 55 42 91t109 36q68 0 109 -38t41 -104q0 -59 -40 -100t-126 -41q-68 0 -129 31t-117 96 l-90 -119q-74 4 -130 67.5t-56 172.5zM-664 1427q0 -81 82 -81q80 0 80 81q0 82 -80 82q-82 0 -82 -82z" />
<glyph d="M-1274 1303v36q0 127 106.5 202t307.5 75q203 0 309.5 -77t106.5 -202v-34h-830zM-1153 1366h590q-4 80 -81 129t-218 49t-216 -49t-75 -129z" />
<glyph d="M-1272 1303v36q0 127 101.5 202t287.5 75q129 0 218.5 -44t129.5 -124v131l56 70h37v-346h-830zM-1153 1366h571q-4 78 -90 127t-211 49q-131 0 -200.5 -48t-69.5 -128z" />
<glyph d="M-1284 1303v43q0 141 80 205.5t213 64.5q90 0 150.5 -30t88.5 -68q6 59 48 94t118 35q84 0 133.5 -45.5t49.5 -126.5q0 -78 -45.5 -125t-135.5 -47h-700zM-1171 1364h423q0 49 -35.5 89t-92 63.5t-119.5 23.5q-92 0 -134 -46t-42 -130zM-686 1477q0 -55 27.5 -81 t72.5 -26t73 25.5t28 79.5q0 104 -101 104q-45 0 -72.5 -24.5t-27.5 -77.5z" />
<glyph d="M-1290 1303v45q0 131 88 199.5t223 68.5q104 0 179 -38t114 -101v102l47 70h33v-285h74v215l51 70h37v-346h-846zM-1176 1364h457q0 41 -31.5 82t-89 67.5t-133.5 26.5q-100 0 -151.5 -49t-51.5 -127z" />
<glyph d="M-526 1466q0 88 56 141.5t153 53.5q98 0 153 -53.5t55 -141.5t-55 -141t-153 -53q-96 0 -152.5 53t-56.5 141zM-442 1466q0 -123 125 -123q59 0 93 33t34 90t-34 90t-93 33q-125 0 -125 -123zM-379 1978v164h127v-164l-33 -229h-61z" />
<glyph d="M-616 2021q0 59 39.5 95t111.5 36q80 0 119 -44t39 -115q0 -53 -20.5 -98.5t-55.5 -73.5l2 -11q133 0 210 76t73 207q63 4 75.5 -21.5t12.5 -46.5q0 -117 -101.5 -196.5t-291.5 -79.5q-31 0 -82.5 3t-89.5 9v39q88 10 137 48t61 77l-8 4q-39 -33 -90 -33q-59 0 -100 33 t-41 92zM-549 2023q0 -33 21.5 -53t56.5 -20t57.5 20.5t22.5 52.5q0 35 -22.5 54.5t-57.5 19.5t-56.5 -19.5t-21.5 -54.5zM-526 1466q0 88 56 141.5t153 53.5q98 0 153 -53.5t55 -141.5t-55 -141t-153 -53q-96 0 -152.5 53t-56.5 141zM-442 1466q0 -123 125 -123q59 0 93 33 t34 90t-34 90t-93 33q-125 0 -125 -123z" />
<glyph d="M-659 1929q0 92 45 148.5t139 66.5l94 -78l111 78q66 -14 111.5 -54t45.5 -122q0 -45 -17 -84t-46 -67l4 -7q88 10 135 88t43 203q55 0 67.5 -18.5t12.5 -52.5q0 -113 -71.5 -197t-202.5 -84h-49t-54 4v37q45 20 75 68.5t30 103.5t-26 83t-58 38l-111 -80l-100 82 q-51 -4 -81 -42t-30 -75l6 -6q31 25 76 25q55 0 90 -31t35 -84t-33 -88t-96 -35q-72 0 -108.5 49t-36.5 131zM-582 1868q0 -68 70 -68t70 68q0 70 -70 69q-70 0 -70 -69zM-526 1466q0 88 56 141.5t153 53.5q98 0 153 -53.5t55 -141.5t-55 -141t-153 -53q-96 0 -152.5 53 t-56.5 141zM-442 1466q0 -123 125 -123q59 0 93 33t34 90t-34 90t-93 33q-125 0 -125 -123z" />
<glyph d="M-547 1901v106h21l161 -16l-16 147v21h113v-21l-17 -147l156 16h20v-106h-20l-156 16l17 -148v-20h-113v20l16 148l-161 -16h-21zM-526 1464q0 88 56 141.5t153 53.5q98 0 153 -53.5t55 -141.5q0 -86 -55 -140t-153 -54q-96 0 -152.5 54t-56.5 140zM-442 1464 q0 -121 125 -121q59 0 93 31t34 90t-34 91t-93 32q-125 0 -125 -123z" />
<glyph d="M-471 -592q0 131 135 131q137 0 137 -131q0 -133 -137 -133q-135 0 -135 133z" />
<glyph d="M-537 -616q0 72 44 113.5t122 41.5q76 0 123 -41t47 -114v-261l-65 -77h-43v200q-10 -8 -29.5 -13t-40.5 -5q-72 0 -115 42t-43 114zM-467 -616q0 -45 24.5 -71t69.5 -26q47 0 72 25.5t25 71.5q0 45 -24 70.5t-71 25.5t-71.5 -25.5t-24.5 -70.5z" />
<glyph d="M-868 -606q0 66 41 105.5t112 39.5q76 0 117 -38t41 -107v-191q0 -98 125 -98q123 0 123 98v248l65 76h43v-330q0 -78 -63.5 -118t-167.5 -40q-109 0 -170.5 40t-61.5 118v68q-12 -10 -28.5 -13.5t-30.5 -3.5q-63 0 -104 40t-41 106zM-805 -606q0 -88 88 -88q90 0 90 88 q0 41 -22.5 65.5t-65.5 24.5t-66.5 -24.5t-23.5 -65.5z" />
<glyph d="M-944 1495v107h20l191 -17l-17 187v20h113v-20l-16 -187l186 17h21v-107h-21l-186 16l16 -188v-20h-113v20l17 188l-191 -16h-20z" />
<glyph d="M-870 1466q0 88 56 141.5t152 53.5q98 0 153.5 -53.5t55.5 -141.5t-55.5 -141t-153.5 -53q-96 0 -152 53t-56 141zM-786 1466q0 -57 32.5 -90t91.5 -33t93 33t34 90t-33.5 90t-93.5 33q-59 0 -91.5 -32.5t-32.5 -90.5z" />
<glyph d="M-874 1466q0 88 56 141.5t152 53.5q98 0 154.5 -53.5t56.5 -141.5t-56.5 -141t-154.5 -53q-96 0 -152 53t-56 141zM-791 1466q0 -57 33 -90t92 -33t93 33t34 90t-33.5 90t-93.5 33q-59 0 -92 -32.5t-33 -90.5zM-729 1978v164h127v-164l-33 -229h-63z" />
<glyph d="M-920 2021q0 59 40 95t110 36q82 0 121 -44t39 -115q0 -53 -21.5 -98.5t-56.5 -73.5l4 -11q131 0 208 76t73 207q63 4 76.5 -21.5t13.5 -46.5q0 -117 -102 -196.5t-292 -79.5q-33 0 -83 3t-91 9v39q88 10 137.5 48t61.5 77l-6 4q-20 -16 -42 -24.5t-50 -8.5 q-59 0 -99.5 33t-40.5 92zM-864 1466q0 88 56 141.5t153 53.5q96 0 152.5 -53.5t56.5 -141.5t-56.5 -141t-152.5 -53t-152.5 53t-56.5 141zM-854 2023q0 -33 22.5 -53t57.5 -20t57.5 20.5t22.5 52.5q0 35 -22.5 54.5t-57.5 19.5t-57.5 -19.5t-22.5 -54.5zM-780 1466 q0 -123 125 -123q59 0 93 33t34 90t-34 90t-93 33q-125 0 -125 -123z" />
<glyph d="M-973 1929q0 92 45 148.5t137 66.5l93 -78l110 78q66 -14 111 -54t45 -122q0 -90 -62 -151l5 -7q86 10 133 88t43 203q53 0 66.5 -18.5t13.5 -52.5q0 -113 -71 -197t-202 -84h-49t-53 4v37q45 20 74.5 68.5t29.5 103.5t-24.5 83t-59.5 38l-110 -80l-99 82 q-51 -4 -80.5 -42t-27.5 -75l6 -6q31 25 76 25q53 0 88 -31t35 -84t-33 -88t-96 -35q-72 0 -108 49t-36 131zM-895 1868q0 -68 70 -68q68 0 67 68q0 70 -67 69q-70 0 -70 -69zM-868 1466q0 88 55 141.5t149 53.5q96 0 152.5 -53.5t56.5 -141.5t-56.5 -141t-152.5 -53 q-94 0 -149 53t-55 141zM-786 1466q0 -57 32.5 -90t89.5 -33q59 0 93 33t34 90t-33.5 90t-93.5 33q-57 0 -89.5 -32.5t-32.5 -90.5z" />
<glyph d="M-883 1901v106h21l162 -16l-17 147v21h113v-21l-17 -147l156 16h21v-106h-21l-156 16l17 -148v-20h-113v20l17 148l-162 -16h-21zM-874 1466q0 88 56 141.5t152 53.5q98 0 154.5 -53.5t56.5 -141.5t-56.5 -141t-154.5 -53q-96 0 -152 53t-56 141zM-791 1466q0 -57 33 -90 t92 -33t93 33t34 90t-33.5 90t-93.5 33q-59 0 -92 -32.5t-33 -90.5z" />
</font>
</defs>
</svg>
